<svg width="20" height="19" viewBox="0 0 20 19" fill="none" xmlns="http://www.w3.org/2000/svg">
<path d="M19.2415 5.12031L18.193 10.8695C18.1065 11.3445 17.8562 11.774 17.4856 12.0834C17.115 12.3927 16.6476 12.5623 16.1649 12.5625H6.19615L6.57428 14.625H15.8126C16.2205 14.625 16.6192 14.746 16.9584 14.9726C17.2976 15.1992 17.562 15.5213 17.7181 15.8982C17.8742 16.2751 17.915 16.6898 17.8354 17.0899C17.7558 17.49 17.5594 17.8575 17.271 18.1459C16.9825 18.4344 16.615 18.6308 16.2149 18.7104C15.8148 18.7899 15.4001 18.7491 15.0233 18.593C14.6464 18.4369 14.3243 18.1725 14.0977 17.8334C13.871 17.4942 13.7501 17.0954 13.7501 16.6875C13.7501 16.4531 13.7908 16.2205 13.8704 16H8.81725C8.89678 16.2205 8.93749 16.4531 8.93756 16.6875C8.93818 17.0203 8.85827 17.3482 8.70466 17.6434C8.55105 17.9386 8.32829 18.1923 8.0554 18.3827C7.78251 18.5732 7.46759 18.6947 7.13752 18.7371C6.80746 18.7794 6.47205 18.7413 6.15992 18.6259C5.8478 18.5105 5.56822 18.3213 5.34507 18.0745C5.12191 17.8276 4.9618 17.5304 4.8784 17.2083C4.79499 16.8861 4.79078 16.5486 4.86611 16.2244C4.94144 15.9003 5.09408 15.5992 5.311 15.3469L2.93053 2.25H1.37506C1.19272 2.25 1.01786 2.17757 0.888925 2.04864C0.759994 1.9197 0.687561 1.74484 0.687561 1.5625C0.687561 1.38016 0.759994 1.2053 0.888925 1.07636C1.01786 0.947433 1.19272 0.875 1.37506 0.875H2.93053C3.25145 0.875702 3.56202 0.988638 3.80844 1.19424C4.05485 1.39985 4.22158 1.68517 4.27975 2.00078L4.70084 4.3125H18.5626C18.6629 4.31271 18.762 4.33517 18.8526 4.37826C18.9433 4.42136 19.0233 4.48401 19.0868 4.56172C19.1533 4.63699 19.2017 4.7264 19.2285 4.82318C19.2553 4.91996 19.2598 5.02157 19.2415 5.12031Z" fill="#C47F17"/>
</svg>
