<svg width="16" height="16" viewBox="0 0 16 16" fill="none" xmlns="http://www.w3.org/2000/svg">
<path fill-rule="evenodd" clip-rule="evenodd" d="M4.10431 2.91333C3.77545 2.58447 3.24226 2.58447 2.9134 2.91333C2.58453 3.2422 2.58453 3.77539 2.9134 4.10425L6.80916 8.00002L2.9134 11.8958C2.58453 12.2247 2.58453 12.7578 2.9134 13.0867C3.24226 13.4156 3.77545 13.4156 4.10431 13.0867L8.00008 9.19094L11.8959 13.0867C12.2247 13.4156 12.7579 13.4156 13.0868 13.0867C13.4156 12.7578 13.4156 12.2247 13.0868 11.8958L9.191 8.00002L13.0868 4.10425C13.4156 3.77539 13.4156 3.2422 13.0868 2.91333C12.7579 2.58447 12.2247 2.58447 11.8959 2.91333L8.00008 6.8091L4.10431 2.91333Z" fill="#8C8A97"/>
</svg>
