<svg width="14" height="16" viewBox="0 0 14 16" fill="none" xmlns="http://www.w3.org/2000/svg">
<path fill-rule="evenodd" clip-rule="evenodd" d="M4.36919 3.90475C4.36919 2.45182 5.54722 1.2738 7.00014 1.2738C8.45307 1.2738 9.6311 2.45182 9.6311 3.90475V4.91665H4.36919V3.90475ZM3.75939 6.13093C3.76027 6.13094 3.76116 6.13094 3.76205 6.13094C3.76294 6.13094 3.76383 6.13094 3.76471 6.13093H10.2356C10.2365 6.13094 10.2374 6.13094 10.2382 6.13094C10.2391 6.13094 10.24 6.13094 10.2409 6.13093H11.0476C11.6068 6.13093 12.0595 6.58363 12.0595 7.14284V13.619C12.0595 14.1782 11.6068 14.6309 11.0476 14.6309H2.95239C2.39318 14.6309 1.94048 14.1782 1.94048 13.619V7.14284C1.94048 6.58363 2.39318 6.13093 2.95239 6.13093H3.75939ZM3.15491 4.91665V3.90475C3.15491 1.78119 4.87659 0.0595093 7.00014 0.0595093C9.1237 0.0595093 10.8454 1.78119 10.8454 3.90475V4.91665H11.0476C12.2775 4.91665 13.2738 5.913 13.2738 7.14284V13.619C13.2738 14.8489 12.2775 15.8452 11.0476 15.8452H2.95239C1.72255 15.8452 0.726196 14.8489 0.726196 13.619V7.14284C0.726196 5.913 1.72255 4.91665 2.95239 4.91665H3.15491ZM7.85868 10.2277C7.78175 10.3046 7.69707 10.369 7.60715 10.421V12.0728C7.60715 12.4082 7.33532 12.68 7.00001 12.68C6.66469 12.68 6.39286 12.4082 6.39286 12.0728V10.421C6.30298 10.369 6.21833 10.3046 6.14142 10.2277C5.66721 9.75345 5.66721 8.98461 6.14142 8.5104C6.61563 8.03619 7.38447 8.03619 7.85868 8.5104C8.33289 8.98461 8.33289 9.75345 7.85868 10.2277Z" fill="#E0DEEA"/>
</svg>
