<svg width="114" height="51" viewBox="0 0 114 51" fill="none" xmlns="http://www.w3.org/2000/svg">
<path d="M36.9212 9.2033C36.8397 8.7199 36.692 8.26441 36.4864 7.86326C36.2808 7.46212 36.0216 7.1233 35.7237 6.86647C30.5277 2.37456 24.5707 0 18.498 0C12.4253 0 6.46829 2.37456 1.27231 6.86647C0.975255 7.12393 0.716641 7.46256 0.511259 7.863C0.305876 8.26343 0.157757 8.7178 0.0753756 9.20013C-0.007006 9.68245 -0.0220331 10.1833 0.0311536 10.6739C0.0843403 11.1645 0.204697 11.6353 0.385338 12.0594L16.2418 49.182C16.4773 49.737 16.809 50.1958 17.2048 50.5143C17.6006 50.8327 18.0471 51 18.5013 51C18.9555 51 19.402 50.8327 19.7978 50.5143C20.1936 50.1958 20.5253 49.737 20.7608 49.182L36.6172 12.0594C36.7981 11.6361 36.9181 11.1655 36.9703 10.6751C37.0225 10.1847 37.0058 9.68436 36.9212 9.2033ZM7.85933 22.3037C8.28867 21.7255 8.80291 21.2915 9.36454 21.0334C9.92618 20.7753 10.521 20.6996 11.1058 20.8118C11.6905 20.9241 12.2503 21.2214 12.7443 21.6821C13.2384 22.1429 13.6543 22.7554 13.9617 23.475C14.269 24.1947 14.4601 25.0033 14.521 25.8419C14.5819 26.6805 14.511 27.5279 14.3136 28.3224C14.1161 29.1169 13.7971 29.8384 13.3797 30.4342C12.9624 31.0301 12.4572 31.4853 11.9011 31.7667L7.85933 22.3037ZM22.3812 38.1068C21.7194 37.2152 21.2924 36.0254 21.1717 34.7372C21.051 33.4489 21.2439 32.1405 21.7181 31.0314C22.1923 29.9224 22.919 29.08 23.7762 28.6457C24.6334 28.2114 25.569 28.2116 26.4262 28.6462L22.3812 38.1068ZM27.8202 25.377C26.3515 24.4243 24.6897 24.2724 23.148 24.9497C21.6064 25.6271 20.2913 27.087 19.4508 29.0542C18.6103 31.0215 18.3023 33.3601 18.585 35.6294C18.8677 37.8987 19.7215 39.9419 20.9855 41.3737L18.498 47.2063L13.2951 35.0336C14.1493 34.4835 14.9118 33.68 15.5322 32.6766C16.1525 31.6732 16.6163 30.4927 16.893 29.2134C17.1697 27.9342 17.2528 26.5855 17.1368 25.2569C17.0209 23.9283 16.7085 22.6501 16.2204 21.5071C15.7324 20.3642 15.0798 19.3827 14.3061 18.6277C13.5323 17.8728 12.655 17.3616 11.7324 17.1282C10.8099 16.8948 9.86311 16.9445 8.95501 17.274C8.0469 17.6035 7.19822 18.2052 6.46528 19.0392L5.41645 16.582C9.35583 13.1455 13.8818 11.3274 18.4972 11.3274C23.1125 11.3274 27.6385 13.1455 31.5779 16.582L27.8202 25.377ZM32.9571 13.3553C28.6019 9.55934 23.5992 7.55118 18.498 7.55118C13.3967 7.55118 8.39406 9.55934 4.03892 13.3553L2.64157 10.0932C7.42531 5.96151 12.9085 3.77756 18.498 3.77756C24.0875 3.77756 29.5707 5.96151 34.3544 10.0932L32.9571 13.3553Z" fill="#FF1616"/>
<path d="M47.44 12.7H48.64C49.32 12.7 49.8533 12.54 50.24 12.22C50.64 11.9 50.84 11.44 50.84 10.84C50.84 10.24 50.6533 9.78667 50.28 9.48C49.9067 9.17333 49.3667 9.02 48.66 9.02C48.42 9.02 48.2 9.02667 48 9.04C47.8133 9.05333 47.6267 9.07333 47.44 9.1V12.7ZM48.84 15.1H44.42V7.94C44.42 7.68667 44.4933 7.48667 44.64 7.34C44.7867 7.19333 44.98 7.08 45.22 7C45.66 6.84 46.1867 6.72667 46.8 6.66C47.4133 6.59333 47.9667 6.56 48.46 6.56C50.26 6.56 51.62 6.94667 52.54 7.72C53.4733 8.48 53.94 9.52 53.94 10.84C53.94 11.6933 53.7333 12.44 53.32 13.08C52.92 13.72 52.34 14.22 51.58 14.58C50.82 14.9267 49.9067 15.1 48.84 15.1ZM44.42 13.76H47.46V18.98C47.34 19.02 47.1467 19.0533 46.88 19.08C46.6133 19.12 46.34 19.14 46.06 19.14C45.46 19.14 45.0333 19.0333 44.78 18.82C44.54 18.6067 44.42 18.2333 44.42 17.7V13.76ZM55.4272 6.64C55.4272 6.18667 55.5805 5.80667 55.8872 5.5C56.2072 5.19333 56.6072 5.04 57.0872 5.04C57.5805 5.04 57.9805 5.19333 58.2872 5.5C58.5939 5.80667 58.7472 6.18667 58.7472 6.64C58.7472 7.08 58.5939 7.46 58.2872 7.78C57.9805 8.1 57.5805 8.26 57.0872 8.26C56.6072 8.26 56.2072 8.1 55.8872 7.78C55.5805 7.46 55.4272 7.08 55.4272 6.64ZM55.6072 13.72H58.5672V18.98C58.4472 19.02 58.2672 19.0533 58.0272 19.08C57.7872 19.12 57.5272 19.14 57.2472 19.14C56.6739 19.14 56.2539 19.04 55.9872 18.84C55.7339 18.64 55.6072 18.28 55.6072 17.76V13.72ZM58.5672 15.26H55.6072V9.52C55.7272 9.48 55.9072 9.44 56.1472 9.4C56.4005 9.36 56.6672 9.34 56.9472 9.34C57.5205 9.34 57.9339 9.44 58.1872 9.64C58.4405 9.82667 58.5672 10.1933 58.5672 10.74V15.26ZM62.3364 19H61.1564C60.9697 18.84 60.8231 18.6467 60.7164 18.42C60.6097 18.1933 60.5564 17.9467 60.5564 17.68C60.5564 17.44 60.6097 17.2067 60.7164 16.98C60.8364 16.74 60.9764 16.52 61.1364 16.32L66.9364 9.42H67.9764C68.1631 9.58 68.3097 9.77333 68.4164 10C68.5364 10.2133 68.5964 10.46 68.5964 10.74C68.5964 10.98 68.5364 11.2133 68.4164 11.44C68.3097 11.6667 68.1697 11.8867 67.9964 12.1L62.3364 19ZM67.3764 9.42V11.72H60.9364C60.8697 11.5867 60.8031 11.42 60.7364 11.22C60.6697 11.0067 60.6364 10.7933 60.6364 10.58C60.6364 10.1667 60.7297 9.87333 60.9164 9.7C61.1031 9.51333 61.3497 9.42 61.6564 9.42H67.3764ZM61.9764 19V16.7H68.4964C68.5764 16.8067 68.6431 16.9667 68.6964 17.18C68.7631 17.38 68.7964 17.6 68.7964 17.84C68.7964 18.24 68.7031 18.5333 68.5164 18.72C68.3431 18.9067 68.1031 19 67.7964 19H61.9764ZM71.8872 19H70.7072C70.5205 18.84 70.3739 18.6467 70.2672 18.42C70.1605 18.1933 70.1072 17.9467 70.1072 17.68C70.1072 17.44 70.1605 17.2067 70.2672 16.98C70.3872 16.74 70.5272 16.52 70.6872 16.32L76.4872 9.42H77.5272C77.7139 9.58 77.8605 9.77333 77.9672 10C78.0872 10.2133 78.1472 10.46 78.1472 10.74C78.1472 10.98 78.0872 11.2133 77.9672 11.44C77.8605 11.6667 77.7205 11.8867 77.5472 12.1L71.8872 19ZM76.9272 9.42V11.72H70.4872C70.4205 11.5867 70.3539 11.42 70.2872 11.22C70.2205 11.0067 70.1872 10.7933 70.1872 10.58C70.1872 10.1667 70.2805 9.87333 70.4672 9.7C70.6539 9.51333 70.9005 9.42 71.2072 9.42H76.9272ZM71.5272 19V16.7H78.0472C78.1272 16.8067 78.1939 16.9667 78.2472 17.18C78.3139 17.38 78.3472 17.6 78.3472 17.84C78.3472 18.24 78.2539 18.5333 78.0672 18.72C77.8939 18.9067 77.6539 19 77.3472 19H71.5272ZM84.018 17.1C84.3246 17.1 84.6246 17.0733 84.918 17.02C85.2246 16.9533 85.4446 16.88 85.578 16.8V14.88L83.898 15.04C83.4446 15.0667 83.0846 15.16 82.818 15.32C82.5513 15.48 82.418 15.72 82.418 16.04C82.418 16.36 82.5446 16.62 82.798 16.82C83.0513 17.0067 83.458 17.1 84.018 17.1ZM83.898 9.1C85.2846 9.1 86.3913 9.39333 87.218 9.98C88.0446 10.5533 88.458 11.4467 88.458 12.66V17.2C88.458 17.5333 88.3713 17.8067 88.198 18.02C88.0246 18.22 87.8046 18.3933 87.538 18.54C87.138 18.78 86.638 18.9667 86.038 19.1C85.4513 19.2467 84.778 19.32 84.018 19.32C82.658 19.32 81.5713 19.0533 80.758 18.52C79.958 17.9867 79.558 17.1933 79.558 16.14C79.558 15.2333 79.838 14.54 80.398 14.06C80.958 13.5667 81.7913 13.2667 82.898 13.16L85.558 12.88V12.64C85.558 12.1867 85.378 11.86 85.018 11.66C84.6713 11.46 84.1713 11.36 83.518 11.36C83.0113 11.36 82.5113 11.42 82.018 11.54C81.538 11.66 81.1046 11.8 80.718 11.96C80.558 11.8533 80.418 11.6933 80.298 11.48C80.1913 11.2533 80.138 11.02 80.138 10.78C80.138 10.22 80.4446 9.81333 81.058 9.56C81.4446 9.4 81.8913 9.28667 82.398 9.22C82.918 9.14 83.418 9.1 83.898 9.1ZM48.498 45H45.5293L45.5488 43.4668H48.498C49.5137 43.4668 50.36 43.2552 51.0371 42.832C51.7142 42.4023 52.222 41.8034 52.5605 41.0352C52.9056 40.2604 53.0781 39.3555 53.0781 38.3203V37.4512C53.0781 36.6374 52.9805 35.9147 52.7852 35.2832C52.5898 34.6452 52.3034 34.1081 51.9258 33.6719C51.5482 33.2292 51.0859 32.8939 50.5391 32.666C49.9987 32.4382 49.377 32.3242 48.6738 32.3242H45.4707V30.7812H48.6738C49.6048 30.7812 50.4544 30.9375 51.2227 31.25C51.9909 31.556 52.6517 32.002 53.2051 32.5879C53.765 33.1673 54.1947 33.8704 54.4941 34.6973C54.7936 35.5176 54.9434 36.4421 54.9434 37.4707V38.3203C54.9434 39.349 54.7936 40.2767 54.4941 41.1035C54.1947 41.9238 53.7617 42.6237 53.1953 43.2031C52.6354 43.7826 51.9583 44.2285 51.1641 44.541C50.3763 44.847 49.4876 45 48.498 45ZM46.5352 30.7812V45H44.6504V30.7812H46.5352ZM61.8867 45.1953C61.151 45.1953 60.4837 45.0716 59.8848 44.8242C59.2923 44.5703 58.7812 44.2155 58.3516 43.7598C57.9284 43.304 57.6029 42.7637 57.375 42.1387C57.1471 41.5137 57.0332 40.8301 57.0332 40.0879V39.6777C57.0332 38.8184 57.1602 38.0534 57.4141 37.3828C57.668 36.7057 58.013 36.1328 58.4492 35.6641C58.8854 35.1953 59.3802 34.8405 59.9336 34.5996C60.487 34.3587 61.0599 34.2383 61.6523 34.2383C62.4076 34.2383 63.0586 34.3685 63.6055 34.6289C64.1589 34.8893 64.6113 35.2539 64.9629 35.7227C65.3145 36.1849 65.5749 36.7318 65.7441 37.3633C65.9134 37.9883 65.998 38.6719 65.998 39.4141V40.2246H58.1074V38.75H64.1914V38.6133C64.1654 38.1445 64.0677 37.6888 63.8984 37.2461C63.7357 36.8034 63.4753 36.4388 63.1172 36.1523C62.7591 35.8659 62.2708 35.7227 61.6523 35.7227C61.2422 35.7227 60.8646 35.8105 60.5195 35.9863C60.1745 36.1556 59.8783 36.4095 59.6309 36.748C59.3835 37.0866 59.1914 37.5 59.0547 37.9883C58.918 38.4766 58.8496 39.0397 58.8496 39.6777V40.0879C58.8496 40.5892 58.918 41.0612 59.0547 41.5039C59.1979 41.9401 59.403 42.3242 59.6699 42.6562C59.9434 42.9883 60.2721 43.2487 60.6562 43.4375C61.0469 43.6263 61.4896 43.7207 61.9844 43.7207C62.6224 43.7207 63.1628 43.5905 63.6055 43.3301C64.0482 43.0697 64.4355 42.7214 64.7676 42.2852L65.8613 43.1543C65.6335 43.4993 65.3438 43.8281 64.9922 44.1406C64.6406 44.4531 64.2077 44.707 63.6934 44.9023C63.1855 45.0977 62.5833 45.1953 61.8867 45.1953ZM70.0703 30V45H68.2539V30H70.0703ZM74.9336 34.4336V45H73.1172V34.4336H74.9336ZM72.9805 31.6309C72.9805 31.3379 73.0684 31.0905 73.2441 30.8887C73.4264 30.6868 73.6934 30.5859 74.0449 30.5859C74.39 30.5859 74.6536 30.6868 74.8359 30.8887C75.0247 31.0905 75.1191 31.3379 75.1191 31.6309C75.1191 31.9108 75.0247 32.1517 74.8359 32.3535C74.6536 32.5488 74.39 32.6465 74.0449 32.6465C73.6934 32.6465 73.4264 32.5488 73.2441 32.3535C73.0684 32.1517 72.9805 31.9108 72.9805 31.6309ZM81.0469 43.3691L83.9375 34.4336H85.7832L81.9844 45H80.7734L81.0469 43.3691ZM78.6348 34.4336L81.6133 43.418L81.8184 45H80.6074L76.7793 34.4336H78.6348ZM91.7695 45.1953C91.0339 45.1953 90.3665 45.0716 89.7676 44.8242C89.1751 44.5703 88.6641 44.2155 88.2344 43.7598C87.8112 43.304 87.4857 42.7637 87.2578 42.1387C87.0299 41.5137 86.916 40.8301 86.916 40.0879V39.6777C86.916 38.8184 87.043 38.0534 87.2969 37.3828C87.5508 36.7057 87.8958 36.1328 88.332 35.6641C88.7682 35.1953 89.263 34.8405 89.8164 34.5996C90.3698 34.3587 90.9427 34.2383 91.5352 34.2383C92.2904 34.2383 92.9414 34.3685 93.4883 34.6289C94.0417 34.8893 94.4941 35.2539 94.8457 35.7227C95.1973 36.1849 95.4577 36.7318 95.627 37.3633C95.7962 37.9883 95.8809 38.6719 95.8809 39.4141V40.2246H87.9902V38.75H94.0742V38.6133C94.0482 38.1445 93.9505 37.6888 93.7812 37.2461C93.6185 36.8034 93.3581 36.4388 93 36.1523C92.6419 35.8659 92.1536 35.7227 91.5352 35.7227C91.125 35.7227 90.7474 35.8105 90.4023 35.9863C90.0573 36.1556 89.7611 36.4095 89.5137 36.748C89.2663 37.0866 89.0742 37.5 88.9375 37.9883C88.8008 38.4766 88.7324 39.0397 88.7324 39.6777V40.0879C88.7324 40.5892 88.8008 41.0612 88.9375 41.5039C89.0807 41.9401 89.2858 42.3242 89.5527 42.6562C89.8262 42.9883 90.1549 43.2487 90.5391 43.4375C90.9297 43.6263 91.3724 43.7207 91.8672 43.7207C92.5052 43.7207 93.0456 43.5905 93.4883 43.3301C93.931 43.0697 94.3184 42.7214 94.6504 42.2852L95.7441 43.1543C95.5163 43.4993 95.2266 43.8281 94.875 44.1406C94.5234 44.4531 94.0905 44.707 93.5762 44.9023C93.0684 45.0977 92.4661 45.1953 91.7695 45.1953ZM99.7969 36.0938V45H97.9902V34.4336H99.748L99.7969 36.0938ZM103.098 34.375L103.088 36.0547C102.938 36.0221 102.795 36.0026 102.658 35.9961C102.528 35.9831 102.378 35.9766 102.209 35.9766C101.792 35.9766 101.424 36.0417 101.105 36.1719C100.786 36.3021 100.516 36.4844 100.295 36.7188C100.074 36.9531 99.8978 37.2331 99.7676 37.5586C99.6439 37.8776 99.5625 38.2292 99.5234 38.6133L99.0156 38.9062C99.0156 38.2682 99.0775 37.6693 99.2012 37.1094C99.3314 36.5495 99.5299 36.0547 99.7969 35.625C100.064 35.1888 100.402 34.8503 100.812 34.6094C101.229 34.362 101.724 34.2383 102.297 34.2383C102.427 34.2383 102.577 34.2546 102.746 34.2871C102.915 34.3132 103.033 34.3424 103.098 34.375ZM107.912 43.9062L110.852 34.4336H112.785L108.547 46.6309C108.449 46.8913 108.319 47.1712 108.156 47.4707C108 47.7767 107.798 48.0664 107.551 48.3398C107.303 48.6133 107.004 48.8346 106.652 49.0039C106.307 49.1797 105.894 49.2676 105.412 49.2676C105.269 49.2676 105.087 49.248 104.865 49.209C104.644 49.1699 104.488 49.1374 104.396 49.1113L104.387 47.6465C104.439 47.653 104.52 47.6595 104.631 47.666C104.748 47.679 104.829 47.6855 104.875 47.6855C105.285 47.6855 105.633 47.6302 105.92 47.5195C106.206 47.4154 106.447 47.2363 106.643 46.9824C106.844 46.735 107.017 46.3932 107.16 45.957L107.912 43.9062ZM105.754 34.4336L108.498 42.6367L108.967 44.541L107.668 45.2051L103.781 34.4336H105.754Z" fill="black"/>
</svg>
