<svg width="17" height="17" viewBox="0 0 17 17" fill="none" xmlns="http://www.w3.org/2000/svg">
<g clip-path="url(#clip0_54_450)">
<path fill-rule="evenodd" clip-rule="evenodd" d="M0.833344 5C0.833344 4.44772 1.28106 4 1.83334 4H14.8333C15.3856 4 15.8333 4.44772 15.8333 5V12C15.8333 12.5523 15.3856 13 14.8333 13H1.83334C1.28106 13 0.833344 12.5523 0.833344 12V5ZM14.8333 5H1.83334V12H14.8333V5Z" fill="#8047F8"/>
<path fill-rule="evenodd" clip-rule="evenodd" d="M8.33334 7C7.50492 7 6.83334 7.67157 6.83334 8.5C6.83334 9.32843 7.50492 10 8.33334 10C9.16177 10 9.83334 9.32843 9.83334 8.5C9.83334 7.67157 9.16177 7 8.33334 7ZM5.83334 8.5C5.83334 7.11929 6.95263 6 8.33334 6C9.71406 6 10.8333 7.11929 10.8333 8.5C10.8333 9.88071 9.71406 11 8.33334 11C6.95263 11 5.83334 9.88071 5.83334 8.5Z" fill="#8047F8"/>
<path fill-rule="evenodd" clip-rule="evenodd" d="M10.9571 4.17075C11.1389 3.96294 11.4548 3.94188 11.6626 4.12372L15.6626 7.62372C15.8704 7.80556 15.8915 8.12144 15.7096 8.32926C15.5278 8.53708 15.2119 8.55814 15.0041 8.37629L11.0041 4.8763C10.7963 4.69445 10.7752 4.37857 10.9571 4.17075Z" fill="#8047F8"/>
<path fill-rule="evenodd" clip-rule="evenodd" d="M15.7096 8.67075C15.8915 8.87857 15.8704 9.19445 15.6626 9.3763L11.6626 12.8763C11.4548 13.0581 11.1389 13.0371 10.9571 12.8293C10.7752 12.6214 10.7963 12.3056 11.0041 12.1237L15.0041 8.62372C15.2119 8.44188 15.5278 8.46294 15.7096 8.67075Z" fill="#8047F8"/>
<path fill-rule="evenodd" clip-rule="evenodd" d="M5.70964 4.17075C5.89148 4.37857 5.87042 4.69445 5.6626 4.8763L1.6626 8.37629C1.45478 8.55814 1.1389 8.53708 0.957062 8.32926C0.775221 8.12144 0.79628 7.80556 1.0041 7.62372L5.0041 4.12372C5.21192 3.94188 5.5278 3.96294 5.70964 4.17075Z" fill="#8047F8"/>
<path fill-rule="evenodd" clip-rule="evenodd" d="M0.957062 8.67075C1.1389 8.46294 1.45478 8.44188 1.6626 8.62372L5.6626 12.1237C5.87042 12.3056 5.89148 12.6214 5.70964 12.8293C5.5278 13.0371 5.21192 13.0581 5.0041 12.8763L1.0041 9.3763C0.79628 9.19445 0.775221 8.87857 0.957062 8.67075Z" fill="#574F4D"/>
</g>
<defs>
<clipPath id="clip0_54_450">
<rect width="16" height="16" fill="white" transform="translate(0.333344 0.5)"/>
</clipPath>
</defs>
</svg>
