<svg width="16" height="14" viewBox="0 0 16 14" fill="none" xmlns="http://www.w3.org/2000/svg">
<path fill-rule="evenodd" clip-rule="evenodd" d="M1.23077 2.91303C1.23077 2.34623 1.68961 1.88739 2.25641 1.88739H13.7436C14.3104 1.88739 14.7692 2.34623 14.7692 2.91303V11.0878C14.7692 11.6536 14.3106 12.1126 13.7436 12.1126H2.25641C1.68961 12.1126 1.23077 11.6538 1.23077 11.087V2.91303ZM2.25641 13.3434H13.7436C14.9899 13.3434 16 12.3337 16 11.0878V2.91303C16 1.66649 14.9901 0.656616 13.7436 0.656616H2.25641C1.00988 0.656616 0 1.66649 0 2.91303V11.087C0 12.3335 1.00988 13.3434 2.25641 13.3434ZM4.21406 4.01079C3.92262 3.83593 3.54462 3.93044 3.36976 4.22187C3.1949 4.5133 3.2894 4.89131 3.58083 5.06617L7.6834 7.52771C7.87828 7.64464 8.12174 7.64464 8.31662 7.52771L12.4192 5.06617C12.7106 4.89131 12.8051 4.5133 12.6303 4.22187C12.4554 3.93044 12.0774 3.83593 11.786 4.01079L8.00001 6.28236L4.21406 4.01079Z" fill="#E0DEEA"/>
</svg>
