<svg width="16" height="15" viewBox="0 0 16 15" fill="none" xmlns="http://www.w3.org/2000/svg">
<path d="M15.9116 14.0873C14.7706 12.1146 13.0122 10.7001 10.9601 10.0295C11.9751 9.42526 12.7638 8.50449 13.2049 7.40862C13.646 6.31276 13.7152 5.10239 13.4018 3.9634C13.0884 2.82441 12.4099 1.81978 11.4703 1.10378C10.5307 0.387776 9.38203 0 8.20072 0C7.01941 0 5.87076 0.387776 4.93117 1.10378C3.99157 1.81978 3.31299 2.82441 2.99963 3.9634C2.68626 5.10239 2.75545 6.31276 3.19656 7.40862C3.63766 8.50449 4.4263 9.42526 5.44136 10.0295C3.38926 10.6993 1.63086 12.1138 0.489802 14.0873C0.447957 14.1555 0.420202 14.2314 0.408174 14.3106C0.396146 14.3897 0.400088 14.4704 0.419768 14.548C0.439449 14.6256 0.474468 14.6984 0.522761 14.7623C0.571054 14.8261 0.631641 14.8796 0.700949 14.9196C0.770257 14.9597 0.846881 14.9854 0.9263 14.9954C1.00572 15.0053 1.08633 14.9992 1.16336 14.9775C1.2404 14.9558 1.31231 14.9189 1.37484 14.8689C1.43737 14.819 1.48927 14.757 1.52746 14.6866C2.93898 12.2472 5.43387 10.7907 8.20072 10.7907C10.9676 10.7907 13.4625 12.2472 14.874 14.6866C14.9122 14.757 14.9641 14.819 15.0266 14.8689C15.0891 14.9189 15.161 14.9558 15.2381 14.9775C15.3151 14.9992 15.3957 15.0053 15.4751 14.9954C15.5546 14.9854 15.6312 14.9597 15.7005 14.9196C15.7698 14.8796 15.8304 14.8261 15.8787 14.7623C15.927 14.6984 15.962 14.6256 15.9817 14.548C16.0014 14.4704 16.0053 14.3897 15.9933 14.3106C15.9812 14.2314 15.9535 14.1555 15.9116 14.0873ZM4.00512 5.39639C4.00512 4.56657 4.25118 3.7554 4.7122 3.06543C5.17322 2.37547 5.82849 1.83771 6.59513 1.52015C7.36178 1.2026 8.20537 1.11951 9.01924 1.2814C9.83311 1.44329 10.5807 1.84288 11.1675 2.42965C11.7542 3.01641 12.1538 3.764 12.3157 4.57786C12.4776 5.39173 12.3945 6.23533 12.077 7.00197C11.7594 7.76862 11.2216 8.42388 10.5317 8.8849C9.84171 9.34592 9.03053 9.59199 8.20072 9.59199C7.08834 9.5908 6.02187 9.14838 5.2353 8.36181C4.44872 7.57524 4.00631 6.50876 4.00512 5.39639Z" fill="#4B2995"/>
</svg>
